<svg xmlns="http://www.w3.org/2000/svg" viewBox="0 0 1252 300"><title>Fichier 7picto</title><g id="Calque_2" data-name="Calque 2"><g id="Données"><polygon points="600 65 600 300 835 300 600 65"/><path d="M0,300H600C600,134.32,465.69,0,300,0S0,134.32,0,300"/><path d="M1188,300h64c-8.67-18.72-31.52-36-64-36v36Z"/><polygon points="1140.98 228 1093.98 300 1187.98 300 1140.98 228"/><path d="M964,300h130A130,130,0,0,0,964,170Z"/><rect x="834" y="142" width="130" height="158"/><polygon points="834 65 599 65 834 300 834 65"/></g></g></svg>