<svg xmlns="http://www.w3.org/2000/svg" viewBox="0 0 600 770"><title>Fichier 8picto</title><g id="Calque_2" data-name="Calque 2"><g id="Analyse"><polygon points="470 0 235 0 235 235 470 0"/><path d="M600,470H0C0,635.69,134.31,770,300,770S600,635.69,600,470"/><path d="M503,470h64c-8.67-18.72-31.52-36-64-36v36Z"/><polygon points="534.98 360 581.98 288 487.98 288 534.98 360"/><path d="M470,130H600A130,130,0,0,0,470,0Z"/><rect x="470" y="130" width="130" height="158"/><polygon points="0 235 0 470 235 235 0 235"/></g></g></svg>