<svg xmlns="http://www.w3.org/2000/svg" viewBox="0 0 600 693"><title>Fichier 9picto</title><g id="Calque_2" data-name="Calque 2"><g id="Data-center"><polygon points="235 158 0 158 0 393 235 158"/><path d="M600,393H0C0,558.68,134.31,693,300,693S600,558.68,600,393"/><path d="M365,158h64c-8.67-18.72-31.52-36-64-36v36Z"/><polygon points="299.98 321 252.98 393 346.98 393 299.98 321"/><path d="M235,158V28A130,130,0,0,0,105,158Z"/><rect x="235" width="130" height="158"/><polygon points="600 158 365 158 600 393 600 158"/></g></g></svg>