<svg xmlns="http://www.w3.org/2000/svg" viewBox="0 0 647 664"><title>Fichier 5picto</title><g id="Calque_2" data-name="Calque 2"><g id="Forum"><polygon points="65 664 300 664 300 429 65 664"/><path d="M600,129H0C0,294.68,134.31,429,300,429S600,294.68,600,129"/><path d="M582,370v64c18.72-8.67,36-31.52,36-64Z"/><polygon points="581.98 592 534.98 664 628.98 664 581.98 592"/><path d="M300,0V130A130,130,0,0,0,430,0Z"/><rect x="517" y="434" width="130" height="158"/><polygon points="300 664 535 664 300 429 300 664"/></g></g></svg>