<svg xmlns="http://www.w3.org/2000/svg" viewBox="0 0 789.2 659.2"><title>Fichier 3picto</title><g id="Calque_2" data-name="Calque 2"><g id="Réseau"><polygon points="365 424.2 365 659.2 600 659.2 365 424.2"/><path d="M789.2,424.26,660.93,296l-97.56-97.56L364.93,0c-117.15,117.16-117.15,307.11,0,424.26s307.11,117.16,424.27,0"/><path d="M622.32,166.87l-45.26,45.26c19.37,7.1,47.75,3.16,70.71-19.8l-25.45-25.46Z"/><polygon points="646.98 587.2 599.98 659.2 693.98 659.2 646.98 587.2"/><path d="M130,501.2v-130A130,130,0,0,0,0,501.2Z"/><rect y="501.2" width="130" height="158"/><polygon points="365 659.2 365 424.2 130 659.2 365 659.2"/></g></g></svg>