<svg xmlns="http://www.w3.org/2000/svg" viewBox="0 0 778.13 512.13"><title>Fichier 10picto</title><g id="Calque_2" data-name="Calque 2"><g id="Chateau-02"><polygon points="31 512.13 266 512.13 266 277.13 31 512.13"/><path d="M690.26,0,562,128.27l-97.56,97.56L266,424.26c117.16,117.16,307.11,117.16,424.26,0s117.16-307.1,0-424.26"/><path d="M172.47,148.62,158.06,211c20.19-4.23,42.17-22.61,49.48-54.25l-35.07-8.1Z"/><polygon points="202 79.43 147.26 145.73 240.67 156.23 202 79.43"/><path d="M288,277.13v-130a130,130,0,0,0-130,130Z"/><rect y="147.13" width="158" height="130"/><polygon points="31 277.13 31 512.13 266 277.13 31 277.13"/></g></g></svg>