<svg xmlns="http://www.w3.org/2000/svg" viewBox="0 0 766 607"><title>Fichier 2picto</title><g id="Calque_2" data-name="Calque 2"><g id="Cloud"><polygon points="584 372 349 372 349 607 584 372"/><path d="M166,300H766C766,134.32,631.69,0,466,0S166,134.32,166,300"/><path d="M36,300V236c-18.72,8.67-36,31.52-36,64Z"/><polygon points="466.98 300 419.98 372 513.98 372 466.98 300"/><path d="M166,300V170A130,130,0,0,0,36,300Z"/><rect x="584" y="449" width="130" height="158"/><polygon points="584 607 584 372 349 607 584 607"/></g></g></svg>