<svg xmlns="http://www.w3.org/2000/svg" viewBox="0 0 730 759"><title>Fichier 1picto</title><g id="Calque_2" data-name="Calque 2"><g id="Bateau"><polygon points="235 94 235 329 470 329 235 94"/><path d="M600,459H0C0,624.68,134.31,759,300,759S600,624.68,600,459"/><path d="M536,459h64c-8.67-18.72-31.52-36-64-36v36Z"/><polygon points="307 47 235 0 235 94 307 47"/><path d="M730,459H600A130,130,0,0,0,730,589Z"/><rect x="235" y="329" width="158" height="130"/><polygon points="235 459 235 224 0 459 235 459"/></g></g></svg>